<svg xmlns="http://www.w3.org/2000/svg" height="20" viewBox="0 96 960 960" width="20"><path d="M427.5 855.5v-69h-117V769h69V382.5h-69v-17.75h117V296.5H445V365h81v-68.5h17.5v73.631q46 4.369 71 31.966 25 27.596 25 72.818 0 33.085-11.75 54.835T597 565q42.5 7 66.5 39.5t24 72.345q0 49.268-26.766 77.961Q633.969 783.5 584 786.5h-40.5v69H526v-69h-81v69h-17.5ZM397 567h133q41.031 0 66.516-25.688Q622 515.624 622 475.062T596.103 408.5q-25.897-26-66.103-26H397V567Zm0 202h181q41.031 0 66.516-25.688Q670 717.624 670 677.062T644.103 610.5q-25.897-26-66.103-26H397V769Z"/></svg>